<mxfile host="app.diagrams.net" agent="Mozilla/5.0 (X11; Linux x86_64) AppleWebKit/537.36 (KHTML, like Gecko) Chrome/136.0.0.0 Safari/537.36" version="27.0.9">
  <diagram name="Waypoint Path Controller" id="L0FgGhg4WBWJmHTFOqlP">
    <mxGraphModel dx="1840" dy="1671" grid="1" gridSize="10" guides="0" tooltips="1" connect="1" arrows="1" fold="1" page="1" pageScale="1" pageWidth="850" pageHeight="1100" math="0" shadow="0">
      <root>
        <mxCell id="0" />
        <mxCell id="1" parent="0" />
        <mxCell id="qjYaPJYBNtSQuFBBaQJp-333" value="GPS (lat, lon)" style="shape=ellipse;whiteSpace=wrap;html=1;labelBackgroundColor=none;fillColor=#f8cecc;strokeColor=#b85450;" vertex="1" parent="1">
          <mxGeometry x="-178" y="-999" width="140" height="60" as="geometry" />
        </mxCell>
        <mxCell id="qjYaPJYBNtSQuFBBaQJp-334" value="Compass (ψ)" style="shape=ellipse;whiteSpace=wrap;html=1;labelBackgroundColor=none;fillColor=#f8cecc;strokeColor=#b85450;" vertex="1" parent="1">
          <mxGeometry x="-818" y="-999" width="140" height="60" as="geometry" />
        </mxCell>
        <mxCell id="qjYaPJYBNtSQuFBBaQJp-335" value="Convert to XN, YN (Earth-fixed)" style="shape=process;whiteSpace=wrap;html=1;labelBackgroundColor=none;fillColor=#f8cecc;strokeColor=#b85450;" vertex="1" parent="1">
          <mxGeometry x="-420" y="-999" width="180" height="60" as="geometry" />
        </mxCell>
        <mxCell id="qjYaPJYBNtSQuFBBaQJp-362" style="edgeStyle=orthogonalEdgeStyle;rounded=0;orthogonalLoop=1;jettySize=auto;html=1;exitX=0.375;exitY=1;exitDx=0;exitDy=0;entryX=0.25;entryY=0;entryDx=0;entryDy=0;strokeColor=#E07A5F;fontColor=#393C56;fillColor=#F2CC8F;" edge="1" parent="1" source="qjYaPJYBNtSQuFBBaQJp-336" target="qjYaPJYBNtSQuFBBaQJp-347">
          <mxGeometry relative="1" as="geometry">
            <Array as="points">
              <mxPoint x="-581" y="-890" />
              <mxPoint x="-750" y="-890" />
              <mxPoint x="-750" y="-603" />
              <mxPoint x="-719" y="-603" />
            </Array>
          </mxGeometry>
        </mxCell>
        <mxCell id="qjYaPJYBNtSQuFBBaQJp-365" style="edgeStyle=orthogonalEdgeStyle;rounded=0;orthogonalLoop=1;jettySize=auto;html=1;exitX=0.625;exitY=1;exitDx=0;exitDy=0;entryX=0.75;entryY=0;entryDx=0;entryDy=0;strokeColor=#E07A5F;fontColor=#393C56;fillColor=#F2CC8F;" edge="1" parent="1" source="qjYaPJYBNtSQuFBBaQJp-336" target="qjYaPJYBNtSQuFBBaQJp-339">
          <mxGeometry relative="1" as="geometry">
            <Array as="points">
              <mxPoint x="-541" y="-890" />
              <mxPoint x="-520" y="-890" />
              <mxPoint x="-520" y="-770" />
              <mxPoint x="-567" y="-770" />
            </Array>
          </mxGeometry>
        </mxCell>
        <mxCell id="qjYaPJYBNtSQuFBBaQJp-336" value="η = [x, y, ψ]ᵀ (Eq. 1)" style="shape=hexagon;whiteSpace=wrap;html=1;labelBackgroundColor=none;fillColor=#f8cecc;strokeColor=#b85450;" vertex="1" parent="1">
          <mxGeometry x="-641" y="-999" width="160" height="60" as="geometry" />
        </mxCell>
        <mxCell id="qjYaPJYBNtSQuFBBaQJp-337" value="Waypoint list (xk, yk)" style="shape=ellipse;whiteSpace=wrap;html=1;labelBackgroundColor=none;fillColor=#d5e8d4;strokeColor=#82b366;" vertex="1" parent="1">
          <mxGeometry x="-713" y="-850" width="180" height="60" as="geometry" />
        </mxCell>
        <mxCell id="qjYaPJYBNtSQuFBBaQJp-338" style="edgeStyle=orthogonalEdgeStyle;rounded=0;orthogonalLoop=1;jettySize=auto;html=1;exitX=1;exitY=0.5;exitDx=0;exitDy=0;entryX=0;entryY=0.5;entryDx=0;entryDy=0;strokeColor=#82b366;fontColor=#393C56;fillColor=#d5e8d4;" edge="1" parent="1" source="qjYaPJYBNtSQuFBBaQJp-339" target="qjYaPJYBNtSQuFBBaQJp-341">
          <mxGeometry relative="1" as="geometry" />
        </mxCell>
        <mxCell id="qjYaPJYBNtSQuFBBaQJp-339" value="ψk = atan2(yk+1 - yk, xk+1 - xk) (Eq. 4)" style="shape=process;whiteSpace=wrap;html=1;labelBackgroundColor=none;fillColor=#d5e8d4;strokeColor=#82b366;" vertex="1" parent="1">
          <mxGeometry x="-732" y="-746" width="220" height="60" as="geometry" />
        </mxCell>
        <mxCell id="qjYaPJYBNtSQuFBBaQJp-340" style="edgeStyle=orthogonalEdgeStyle;rounded=0;orthogonalLoop=1;jettySize=auto;html=1;exitX=1;exitY=0.5;exitDx=0;exitDy=0;entryX=0;entryY=0.5;entryDx=0;entryDy=0;strokeColor=#82b366;fontColor=#393C56;fillColor=#d5e8d4;" edge="1" parent="1" source="qjYaPJYBNtSQuFBBaQJp-341" target="qjYaPJYBNtSQuFBBaQJp-343">
          <mxGeometry relative="1" as="geometry" />
        </mxCell>
        <mxCell id="qjYaPJYBNtSQuFBBaQJp-341" value="∆ψk = ψk+1 - ψk (Eq. 5)" style="shape=process;whiteSpace=wrap;html=1;labelBackgroundColor=none;fillColor=#d5e8d4;strokeColor=#82b366;" vertex="1" parent="1">
          <mxGeometry x="-492" y="-746" width="180" height="60" as="geometry" />
        </mxCell>
        <mxCell id="qjYaPJYBNtSQuFBBaQJp-342" style="edgeStyle=orthogonalEdgeStyle;rounded=0;orthogonalLoop=1;jettySize=auto;html=1;exitX=1;exitY=0.5;exitDx=0;exitDy=0;entryX=1;entryY=0.25;entryDx=0;entryDy=0;strokeColor=#E07A5F;fontColor=#393C56;fillColor=#F2CC8F;" edge="1" parent="1" source="qjYaPJYBNtSQuFBBaQJp-343" target="qjYaPJYBNtSQuFBBaQJp-345">
          <mxGeometry relative="1" as="geometry" />
        </mxCell>
        <mxCell id="qjYaPJYBNtSQuFBBaQJp-343" value="Lk = f(∆ψk) (Eq. 49)" style="shape=process;whiteSpace=wrap;html=1;labelBackgroundColor=none;fillColor=#d5e8d4;strokeColor=#82b366;" vertex="1" parent="1">
          <mxGeometry x="-292" y="-746" width="180" height="60" as="geometry" />
        </mxCell>
        <mxCell id="qjYaPJYBNtSQuFBBaQJp-344" style="edgeStyle=orthogonalEdgeStyle;rounded=0;orthogonalLoop=1;jettySize=auto;html=1;exitX=0;exitY=0.75;exitDx=0;exitDy=0;entryX=0.5;entryY=0;entryDx=0;entryDy=0;strokeColor=#E07A5F;fontColor=#393C56;fillColor=#F2CC8F;" edge="1" parent="1" source="qjYaPJYBNtSQuFBBaQJp-345" target="qjYaPJYBNtSQuFBBaQJp-347">
          <mxGeometry relative="1" as="geometry" />
        </mxCell>
        <mxCell id="qjYaPJYBNtSQuFBBaQJp-345" value="Switch Mode: Ls &lt; Lk? (Fig. 5)" style="shape=diamond;whiteSpace=wrap;html=1;labelBackgroundColor=none;fillColor=#F2CC8F;strokeColor=#E07A5F;fontColor=#393C56;" vertex="1" parent="1">
          <mxGeometry x="-414" y="-659" width="140" height="80" as="geometry" />
        </mxCell>
        <mxCell id="qjYaPJYBNtSQuFBBaQJp-346" style="edgeStyle=orthogonalEdgeStyle;rounded=0;orthogonalLoop=1;jettySize=auto;html=1;exitX=0.75;exitY=1;exitDx=0;exitDy=0;entryX=0;entryY=0.5;entryDx=0;entryDy=0;strokeColor=#E07A5F;fontColor=#393C56;fillColor=#F2CC8F;" edge="1" parent="1" source="qjYaPJYBNtSQuFBBaQJp-347" target="qjYaPJYBNtSQuFBBaQJp-356">
          <mxGeometry relative="1" as="geometry" />
        </mxCell>
        <mxCell id="qjYaPJYBNtSQuFBBaQJp-347" value="Track-Keeping Mode (σ=1)" style="shape=swimlane;whiteSpace=wrap;html=1;labelBackgroundColor=none;fillColor=#F2CC8F;strokeColor=#E07A5F;fontColor=#393C56;" vertex="1" parent="1">
          <mxGeometry x="-844" y="-559" width="500" height="180" as="geometry" />
        </mxCell>
        <mxCell id="qjYaPJYBNtSQuFBBaQJp-348" value="ey = (x - xk)sinψk - (y - yk)cosψk (Eq. 41)" style="shape=process;whiteSpace=wrap;html=1;labelBackgroundColor=none;fillColor=#F2CC8F;strokeColor=#E07A5F;fontColor=#393C56;" vertex="1" parent="qjYaPJYBNtSQuFBBaQJp-347">
          <mxGeometry x="20" y="30" width="220" height="60" as="geometry" />
        </mxCell>
        <mxCell id="qjYaPJYBNtSQuFBBaQJp-349" value="PD: eψ = ψ - ψk (Eq. 46)" style="shape=process;whiteSpace=wrap;html=1;labelBackgroundColor=none;fillColor=#F2CC8F;strokeColor=#E07A5F;fontColor=#393C56;" vertex="1" parent="qjYaPJYBNtSQuFBBaQJp-347">
          <mxGeometry x="260" y="30" width="200" height="60" as="geometry" />
        </mxCell>
        <mxCell id="qjYaPJYBNtSQuFBBaQJp-350" value="PI: δ_PI = k3·ey + k4·∫ey dt" style="shape=process;whiteSpace=wrap;html=1;labelBackgroundColor=none;fillColor=#F2CC8F;strokeColor=#E07A5F;fontColor=#393C56;" vertex="1" parent="qjYaPJYBNtSQuFBBaQJp-347">
          <mxGeometry x="20" y="110" width="220" height="60" as="geometry" />
        </mxCell>
        <mxCell id="qjYaPJYBNtSQuFBBaQJp-351" value="δc = δ_PD + δ_PI (Eq. 45)" style="shape=process;whiteSpace=wrap;html=1;labelBackgroundColor=none;fillColor=#F2CC8F;strokeColor=#E07A5F;fontColor=#393C56;" vertex="1" parent="qjYaPJYBNtSQuFBBaQJp-347">
          <mxGeometry x="260" y="110" width="200" height="60" as="geometry" />
        </mxCell>
        <mxCell id="qjYaPJYBNtSQuFBBaQJp-352" style="edgeStyle=orthogonalEdgeStyle;rounded=0;orthogonalLoop=1;jettySize=auto;html=1;exitX=0.5;exitY=1;exitDx=0;exitDy=0;strokeColor=#E07A5F;fontColor=#393C56;fillColor=#F2CC8F;entryX=1;entryY=0.5;entryDx=0;entryDy=0;" edge="1" parent="1" source="qjYaPJYBNtSQuFBBaQJp-353" target="qjYaPJYBNtSQuFBBaQJp-356">
          <mxGeometry relative="1" as="geometry">
            <mxPoint x="-254" y="-309" as="targetPoint" />
          </mxGeometry>
        </mxCell>
        <mxCell id="qjYaPJYBNtSQuFBBaQJp-353" value="Turning Mode (σ=2)" style="shape=swimlane;whiteSpace=wrap;html=1;labelBackgroundColor=none;fillColor=#F2CC8F;strokeColor=#E07A5F;fontColor=#393C56;" vertex="1" parent="1">
          <mxGeometry x="-324" y="-559" width="320" height="180" as="geometry" />
        </mxCell>
        <mxCell id="qjYaPJYBNtSQuFBBaQJp-354" value="eψ = ψ - ψk → PD control only" style="shape=process;whiteSpace=wrap;html=1;labelBackgroundColor=none;fillColor=#F2CC8F;strokeColor=#E07A5F;fontColor=#393C56;" vertex="1" parent="qjYaPJYBNtSQuFBBaQJp-353">
          <mxGeometry x="20" y="40" width="260" height="60" as="geometry" />
        </mxCell>
        <mxCell id="qjYaPJYBNtSQuFBBaQJp-355" value="δc = δ_PD" style="shape=process;whiteSpace=wrap;html=1;labelBackgroundColor=none;fillColor=#F2CC8F;strokeColor=#E07A5F;fontColor=#393C56;" vertex="1" parent="qjYaPJYBNtSQuFBBaQJp-353">
          <mxGeometry x="20" y="110" width="260" height="40" as="geometry" />
        </mxCell>
        <mxCell id="qjYaPJYBNtSQuFBBaQJp-356" value="Output δc, ngc (Eq. 6)" style="shape=ellipse;whiteSpace=wrap;html=1;labelBackgroundColor=none;fillColor=#F2CC8F;strokeColor=#E07A5F;fontColor=#393C56;" vertex="1" parent="1">
          <mxGeometry x="-404" y="-349" width="140" height="60" as="geometry" />
        </mxCell>
        <mxCell id="qjYaPJYBNtSQuFBBaQJp-357" style="edgeStyle=orthogonalEdgeStyle;endArrow=block;html=1;strokeColor=#b85450;labelBackgroundColor=none;fontColor=default;fillColor=#f8cecc;" edge="1" parent="1" source="qjYaPJYBNtSQuFBBaQJp-333" target="qjYaPJYBNtSQuFBBaQJp-335">
          <mxGeometry relative="1" as="geometry" />
        </mxCell>
        <mxCell id="qjYaPJYBNtSQuFBBaQJp-358" style="edgeStyle=orthogonalEdgeStyle;endArrow=block;html=1;strokeColor=#b85450;labelBackgroundColor=none;fontColor=default;fillColor=#f8cecc;" edge="1" parent="1" source="qjYaPJYBNtSQuFBBaQJp-334" target="qjYaPJYBNtSQuFBBaQJp-336">
          <mxGeometry relative="1" as="geometry" />
        </mxCell>
        <mxCell id="qjYaPJYBNtSQuFBBaQJp-359" style="edgeStyle=orthogonalEdgeStyle;endArrow=block;html=1;strokeColor=#b85450;labelBackgroundColor=none;fontColor=default;fillColor=#f8cecc;" edge="1" parent="1" source="qjYaPJYBNtSQuFBBaQJp-335" target="qjYaPJYBNtSQuFBBaQJp-336">
          <mxGeometry relative="1" as="geometry" />
        </mxCell>
        <mxCell id="qjYaPJYBNtSQuFBBaQJp-360" style="edgeStyle=orthogonalEdgeStyle;endArrow=block;html=1;strokeColor=#82b366;labelBackgroundColor=none;fontColor=default;fillColor=#d5e8d4;" edge="1" parent="1" source="qjYaPJYBNtSQuFBBaQJp-337" target="qjYaPJYBNtSQuFBBaQJp-339">
          <mxGeometry relative="1" as="geometry">
            <Array as="points">
              <mxPoint x="-620" y="-740" />
              <mxPoint x="-620" y="-740" />
            </Array>
          </mxGeometry>
        </mxCell>
        <mxCell id="qjYaPJYBNtSQuFBBaQJp-361" style="edgeStyle=orthogonalEdgeStyle;rounded=0;orthogonalLoop=1;jettySize=auto;html=1;exitX=1;exitY=0.75;exitDx=0;exitDy=0;entryX=0.478;entryY=0.022;entryDx=0;entryDy=0;entryPerimeter=0;strokeColor=#E07A5F;fontColor=#393C56;fillColor=#F2CC8F;" edge="1" parent="1" source="qjYaPJYBNtSQuFBBaQJp-345" target="qjYaPJYBNtSQuFBBaQJp-353">
          <mxGeometry relative="1" as="geometry" />
        </mxCell>
        <mxCell id="qjYaPJYBNtSQuFBBaQJp-364" value="η used for error calc" style="shape=callout;whiteSpace=wrap;html=1;perimeter=calloutPerimeter;strokeColor=#E07A5F;fontColor=#393C56;fillColor=#F2CC8F;size=17;position=0.52;position2=0.52;" vertex="1" parent="1">
          <mxGeometry x="-710" y="-938" width="97" height="47" as="geometry" />
        </mxCell>
        <mxCell id="qjYaPJYBNtSQuFBBaQJp-366" value="η used for calculating waypoint direction" style="shape=callout;whiteSpace=wrap;html=1;perimeter=calloutPerimeter;strokeColor=#E07A5F;fontColor=#393C56;fillColor=#F2CC8F;size=17;position=0.31;position2=0;base=30;" vertex="1" parent="1">
          <mxGeometry x="-517" y="-930" width="97" height="80" as="geometry" />
        </mxCell>
        <mxCell id="qjYaPJYBNtSQuFBBaQJp-367" value="recalculated for each segment" style="shape=callout;whiteSpace=wrap;html=1;perimeter=calloutPerimeter;strokeColor=#E07A5F;fontColor=#393C56;fillColor=#F2CC8F;base=15;size=20;position=0.44;" vertex="1" parent="1">
          <mxGeometry x="-740" y="-780" width="90" height="50" as="geometry" />
        </mxCell>
      </root>
    </mxGraphModel>
  </diagram>
</mxfile>
